<?xml version="1.0" encoding="UTF-8" standalone="no"?>
<!-- Generator: Adobe Illustrator 17.0.0, SVG Export Plug-In . SVG Version: 6.00 Build 0)  -->
<!DOCTYPE svg  PUBLIC '-//W3C//DTD SVG 1.1//EN'  'http://www.w3.org/Graphics/SVG/1.1/DTD/svg11.dtd'>
<svg id="Layer_1" xmlns="http://www.w3.org/2000/svg" xml:space="preserve" height="114.7px" viewBox="0 0 393.458 114.696" width="393.46px" version="1.1" y="0px" x="0px" xmlns:xlink="http://www.w3.org/1999/xlink" enable-background="new 0 0 393.458 114.696">
<g fill="#fff">
	<path d="m34.56 71.335c-1.173-1.492-2.707-2.68-4.6-3.561-1.894-0.88-3.72-1.319-5.48-1.319-0.908 0-1.828 0.08-2.76 0.24-0.934 0.159-1.773 0.467-2.52 0.92-0.748 0.453-1.374 1.04-1.88 1.76-0.507 0.72-0.76 1.64-0.76 2.76 0 0.96 0.2 1.76 0.6 2.4s0.986 1.2 1.76 1.68c0.772 0.48 1.692 0.92 2.76 1.32 1.066 0.399 2.267 0.813 3.6 1.239 1.92 0.641 3.92 1.348 6 2.12 2.08 0.774 3.973 1.801 5.68 3.08 1.706 1.28 3.12 2.868 4.24 4.761 1.12 1.894 1.68 4.253 1.68 7.079 0 3.254-0.6 6.068-1.8 8.44-1.2 2.374-2.813 4.334-4.84 5.88-2.027 1.548-4.348 2.694-6.96 3.44-2.614 0.746-5.308 1.12-8.08 1.12-4.054 0-7.974-0.708-11.76-2.12-3.788-1.413-6.934-3.427-9.44-6.04l8.96-9.12c1.386 1.707 3.212 3.134 5.48 4.28 2.266 1.147 4.52 1.72 6.76 1.72 1.013 0 2-0.106 2.96-0.32 0.96-0.212 1.8-0.56 2.52-1.04 0.72-0.479 1.292-1.12 1.72-1.92 0.426-0.8 0.64-1.76 0.64-2.88 0-1.066-0.268-1.973-0.8-2.72-0.534-0.746-1.293-1.427-2.28-2.04-0.988-0.612-2.214-1.173-3.68-1.681-1.467-0.506-3.134-1.052-5-1.64-1.814-0.586-3.587-1.28-5.32-2.08-1.734-0.8-3.28-1.826-4.64-3.08-1.36-1.252-2.454-2.772-3.28-4.56-0.828-1.786-1.24-3.96-1.24-6.521 0-3.146 0.64-5.84 1.92-8.08 1.28-2.239 2.96-4.08 5.04-5.52s4.426-2.492 7.04-3.16c2.612-0.666 5.252-1 7.92-1 3.2 0 6.466 0.588 9.8 1.76 3.333 1.174 6.252 2.908 8.76 5.2l-8.72 9.207z"/>
	<path d="m72.031 113.26v-21.6c0-1.12-0.08-2.187-0.24-3.2s-0.468-1.906-0.92-2.681c-0.454-0.772-1.054-1.386-1.8-1.84-0.748-0.452-1.708-0.68-2.88-0.68-2.294 0-4.054 0.813-5.28 2.44-1.228 1.627-1.84 3.64-1.84 6.04v21.52h-13.12v-60.48h13.12v25.681h0.16c0.906-1.601 2.346-3.026 4.32-4.28 1.973-1.252 4.346-1.88 7.12-1.88 2.72 0 5 0.479 6.84 1.44 1.84 0.96 3.333 2.199 4.48 3.72 1.146 1.52 1.973 3.268 2.48 5.24 0.506 1.974 0.76 3.947 0.76 5.92v24.64h-13.2z"/>
	<path d="m132.18 93.175c0 3.254-0.587 6.2-1.76 8.84-1.174 2.641-2.774 4.88-4.8 6.721-2.027 1.84-4.374 3.267-7.04 4.279-2.667 1.013-5.52 1.521-8.56 1.521-2.988 0-5.828-0.508-8.52-1.521-2.694-1.013-5.04-2.439-7.04-4.279-2-1.841-3.587-4.08-4.76-6.721-1.174-2.64-1.76-5.586-1.76-8.84 0-3.252 0.586-6.187 1.76-8.8 1.173-2.612 2.76-4.826 4.76-6.64 2-1.812 4.346-3.2 7.04-4.16 2.692-0.96 5.532-1.44 8.52-1.44 3.04 0 5.892 0.48 8.56 1.44 2.667 0.96 5.013 2.348 7.04 4.16 2.026 1.813 3.626 4.027 4.8 6.64 1.17 2.609 1.76 5.543 1.76 8.795zm-12.64 0c0-1.28-0.214-2.532-0.64-3.76-0.428-1.227-1.04-2.307-1.84-3.24s-1.788-1.692-2.96-2.28c-1.173-0.586-2.534-0.88-4.08-0.88-1.548 0-2.908 0.294-4.08 0.88-1.174 0.588-2.147 1.348-2.92 2.28-0.774 0.934-1.36 2.014-1.76 3.24-0.4 1.228-0.6 2.479-0.6 3.76s0.2 2.534 0.6 3.76c0.4 1.228 1 2.334 1.8 3.32 0.8 0.987 1.786 1.773 2.96 2.36 1.172 0.587 2.532 0.88 4.08 0.88 1.546 0 2.906-0.293 4.08-0.88 1.173-0.587 2.16-1.373 2.96-2.36 0.8-0.986 1.4-2.093 1.8-3.32 0.4-1.231 0.6-2.485 0.6-3.765z"/>
	<path d="m184.87 113.26h-13.2l-7.84-24.8h-0.16l-7.68 24.8h-13.2l-13.76-39.84h14.16l6.88 25.2h0.24l7.12-25.2h13.2l7.36 25.2h0.16l6.96-25.2h13.6l-13.84 39.84z"/>
	<path d="m241.71 113.34c-3.708 0.906-7.748 1.36-12.12 1.36-4.534 0-8.708-0.721-12.521-2.16-3.813-1.44-7.094-3.467-9.84-6.08-2.747-2.612-4.894-5.746-6.44-9.4-1.547-3.652-2.319-7.72-2.319-12.2 0-4.532 0.786-8.64 2.359-12.319 1.573-3.681 3.747-6.812 6.521-9.4 2.772-2.586 6.026-4.572 9.76-5.96 3.732-1.386 7.76-2.08 12.08-2.08 4.48 0 8.64 0.68 12.48 2.04s6.96 3.188 9.359 5.48l-8.64 9.84c-1.334-1.547-3.094-2.812-5.28-3.8-2.188-0.986-4.667-1.48-7.439-1.48-2.4 0-4.614 0.44-6.641 1.32s-3.787 2.107-5.279 3.68c-1.494 1.574-2.654 3.44-3.48 5.6-0.827 2.16-1.24 4.521-1.24 7.08 0 2.614 0.373 5.014 1.12 7.2 0.746 2.188 1.853 4.067 3.32 5.641 1.466 1.573 3.28 2.8 5.439 3.68 2.16 0.88 4.627 1.32 7.4 1.32 1.6 0 3.12-0.12 4.56-0.36s2.772-0.626 4-1.16v-10.32h-10.8v-11.04h23.36v30c-2.78 1.44-6.02 2.61-9.72 3.52z"/>
	<path d="m282.85 84.215c-0.588-0.16-1.16-0.267-1.72-0.32-0.561-0.052-1.107-0.08-1.641-0.08-1.76 0-3.239 0.32-4.439 0.958-1.2 0.639-2.16 1.41-2.88 2.313-0.721 0.905-1.24 1.889-1.561 2.953-0.319 1.063-0.479 1.993-0.479 2.791v20.425h-13.12v-39.798h12.64v5.761h0.16c1.013-2.04 2.452-3.705 4.32-4.994 1.866-1.289 4.026-1.934 6.479-1.934 0.533 0 1.053 0.027 1.561 0.08 0.506 0.054 0.92 0.134 1.239 0.24l-0.56 11.6z"/>
	<path d="m325.17 84.375c-1.174-2.612-2.773-4.826-4.8-6.64-2.027-1.812-4.374-3.2-7.04-4.16-2.667-0.96-5.52-1.44-8.56-1.44-2.987 0-5.828 0.48-8.521 1.44s-5.04 2.348-7.04 4.16c-2 1.813-3.587 4.027-4.76 6.64-1.174 2.613-1.76 5.548-1.76 8.8 0 3.254 0.586 6.2 1.76 8.84 1.173 2.641 2.76 4.88 4.76 6.721 2 1.84 4.347 3.267 7.04 4.279 2.692 1.013 5.533 1.521 8.521 1.521 3.04 0 5.893-0.508 8.56-1.521 2.666-1.013 5.013-2.439 7.04-4.279 2.026-1.841 3.626-4.08 4.8-6.721 1.173-2.64 1.761-5.586 1.761-8.84 0-3.257-0.59-6.191-1.76-8.805zm-8.72 13.096h-6.938v6.938h-9.392v-6.938h-6.938v-9.392h6.938v-6.938h9.392v6.938h6.938v9.391z"/>
	<path d="m379.62 113.26h-13.2l-7.84-24.8h-0.16l-7.68 24.8h-13.2l-13.76-39.84h14.16l6.88 25.2h0.24l7.12-25.2h13.199l7.36 25.2h0.16l6.96-25.2h13.6l-13.84 39.84z"/>
</g>
<path d="m292.01 48.339h-192.5c31.886-6.338 64.186-7.976 96.622-8.315-1.22-6.856-5.646-10.789-12.175-11.304-9.204-0.726-16.824-4.676-22.702-11.802-1.855-2.25-3.403-4.753-5.088-7.143-1.329-1.884-2.653-3.771-4.001-5.687 6.201-5.435 18.656-5.485 28.884 0.056 8.936 4.84 14.513 14.466 13.322 23.405-5.496-5.628-11.273-10.603-18.451-13.755 0.479 0.411 0.933 0.857 1.442 1.227 8.765 6.387 16.435 13.714 20.802 23.934 0.208 0.487 0.898 0.97 1.426 1.051 0.363 0.056 1.074-0.504 1.221-0.929 2.28-6.586 6.2-11.979 11.791-16.187-0.163-0.207-0.326-0.413-0.488-0.619-2.674 1.895-5.348 3.789-8.319 5.893 0.064-4.44 1.995-7.541 5.446-9.673 4.77-2.946 9.756-3.619 15.004-1.012-3.383 7.171-8.327 11.981-16.384 12.937-1.049 0.124-2.414 0.821-2.918 1.675-1.41 2.387-2.444 4.996-3.675 7.62 15.684 0.821 30.813 1.227 45.867 2.51 15.027 1.282 29.979 3.443 44.964 5.218-0.02 0.3-0.05 0.6-0.08 0.9" fill="#fff"/>
</svg>
